# xmcd
#
# Track frame offsets:
#	150
#	16579
#	39834
#	54657
#	69971
#	80002
#	92068
#	103051
#	120564
#	134273
#	146524
#	159428
#	172105
#	187192
#	197984
#	208114
#	221585
#	233363
#
# Disc length: 3311 seconds
#
# Revision: 0
# Processed by: cddbd v1.4PL0 Copyright (c) Steve Scherf et al.
# Submitted via: EasyCDDAExtractor 4.6.9.1
#
DISCID=f90ced12
DTITLE=Various Artist - Cowboys and Cowgirls  CD 2
DYEAR=1900
DGENRE=Country
TTITLE0=Johnny Cash - A Boy Named Sue
TTITLE1=Rita Coolidge - I'm Still Learning About Love
TTITLE2=Glenn Cambell - Rhinestone Cowboy
TTITLE3=Jean Shepard - Slippin'  Away
TTITLE4=Buck Owens - Rhythm And Booze
TTITLE5=Dolly Parton - Two Little Orphans
TTITLE6=Waylon Jennings - Sally Was A Good Old Girl
TTITLE7=Deborah Allens - Baby I Lied
TTITLE8=Johnny Rodriguez - Desperado
TTITLE9=Jeannie Pruett - Satin Sheets
TTITLE10=Bobby Helms - My Special Angel
TTITLE11=Kitty Wells - Making Believe
TTITLE12=Merle Haggard - Today I Started Loving You Again
TTITLE13=Billy Jo Spears - Misty Blue
TTITLE14=Ricky Nelson - Never Be Anyone Else But You
TTITLE15=Becky Hobbs - Mamma's Green Eyes
TTITLE16=Conway Twitty - Lying Here With Linda On My Mind
TTITLE17=Jeannie C. Riley - Harper Valley P.T.A.
EXTD=
EXTT0=
EXTT1=
EXTT2=
EXTT3=
EXTT4=
EXTT5=
EXTT6=
EXTT7=
EXTT8=
EXTT9=
EXTT10=
EXTT11=
EXTT12=
EXTT13=
EXTT14=
EXTT15=
EXTT16=
EXTT17=
PLAYORDER=
